<?xml version="1.0" standalone="no"?>
<!DOCTYPE svg PUBLIC "-//W3C//DTD SVG 20010904//EN"
 "http://www.w3.org/TR/2001/REC-SVG-20010904/DTD/svg10.dtd">
<svg version="1.0" xmlns="http://www.w3.org/2000/svg"
 width="128.000000pt" height="128.000000pt" viewBox="0 0 128.000000 128.000000"
 preserveAspectRatio="xMidYMid meet">
<metadata>
Created by potrace 1.11, written by Peter Selinger 2001-2013
</metadata>
<g transform="translate(0.000000,128.000000) scale(0.100000,-0.100000)"
fill="#000000" stroke="none">
<path d="M495 1230 c-81 -23 -153 -61 -212 -111 -57 -50 -118 -129 -135 -176
-7 -18 -15 -33 -19 -33 -4 0 -10 -17 -15 -37 -4 -21 -8 -40 -9 -43 -29 -93
-22 -232 16 -325 7 -17 13 -35 14 -41 13 -59 189 -255 215 -239 4 3 11 -2 14
-11 3 -8 10 -12 16 -9 5 3 10 2 10 -4 0 -11 129 -56 137 -47 8 8 11 133 4 143
-3 5 -30 19 -58 32 -29 14 -60 33 -69 42 -9 10 -21 16 -26 13 -4 -3 -7 -2 -6
3 1 4 -12 23 -29 41 -32 33 -78 116 -90 162 -11 45 -7 184 7 225 7 22 24 57
37 78 13 20 21 37 18 37 -3 0 16 20 42 45 138 128 328 156 479 69 23 -13 44
-21 48 -19 3 3 4 3 2 0 -1 -3 22 -30 53 -61 31 -30 55 -57 53 -60 -1 -2 4 -17
12 -32 99 -193 13 -443 -186 -540 l-62 -30 -1 -75 -1 -75 28 3 c15 2 47 13 70
23 24 10 45 18 48 18 3 -1 24 13 46 29 134 99 203 197 238 338 61 245 -56 505
-282 625 -34 18 -62 30 -62 26 0 -3 -6 -2 -12 4 -43 34 -232 41 -333 12z"/>
<path d="M566 542 c-2 -4 -3 -121 -2 -261 l1 -253 80 0 80 0 0 258 0 259 -77
2 c-43 1 -80 -2 -82 -5z"/>
</g>
</svg>
